<?xml version="1.0" encoding="utf-8"?>
<!-- Generator: Adobe Illustrator 16.0.0, SVG Export Plug-In . SVG Version: 6.00 Build 0)  -->
<!DOCTYPE svg PUBLIC "-//W3C//DTD SVG 1.1//EN" "http://www.w3.org/Graphics/SVG/1.1/DTD/svg11.dtd">
<svg version="1.1" id="圖層_1" xmlns="http://www.w3.org/2000/svg" xmlns:xlink="http://www.w3.org/1999/xlink" x="0px" y="0px"
	 width="130px" height="71px" viewBox="0 0 130 71" enable-background="new 0 0 130 71" xml:space="preserve">
<g>
	<path d="M55.786,45.455c-0.249-0.22-0.543-0.376-0.884-0.472c-0.345-0.099-0.838-0.147-1.479-0.147h-2.167
		c-0.372,0-0.643,0.079-0.813,0.238c-0.171,0.159-0.256,0.426-0.256,0.797v6.424c0,0.334,0.078,0.588,0.233,0.76
		c0.155,0.174,0.36,0.259,0.614,0.259c0.243,0,0.444-0.088,0.603-0.261c0.16-0.175,0.239-0.431,0.239-0.769v-2.359h1.546
		c1.035,0,1.814-0.219,2.337-0.656c0.523-0.438,0.784-1.082,0.784-1.931c0-0.398-0.064-0.757-0.193-1.074
		C56.223,45.944,56.034,45.676,55.786,45.455z M54.623,48.116c-0.14,0.19-0.344,0.325-0.611,0.41
		c-0.267,0.083-0.6,0.125-0.998,0.125h-1.137v-2.549h1.137c0.755,0,1.253,0.124,1.496,0.371c0.216,0.23,0.324,0.529,0.324,0.898
		C54.833,47.678,54.763,47.928,54.623,48.116z"/>
	<path d="M62.787,47.878c-0.273-0.28-0.601-0.497-0.983-0.648c-0.383-0.152-0.81-0.228-1.28-0.228c-0.462,0-0.885,0.075-1.268,0.225
		c-0.383,0.15-0.709,0.362-0.978,0.641c-0.269,0.275-0.476,0.609-0.62,1c-0.144,0.391-0.216,0.82-0.216,1.291
		c0,0.467,0.071,0.892,0.213,1.275c0.143,0.386,0.351,0.72,0.625,1.002c0.275,0.282,0.6,0.5,0.975,0.651s0.798,0.227,1.268,0.227
		c0.474,0,0.9-0.074,1.28-0.225c0.379-0.149,0.705-0.364,0.978-0.646c0.272-0.28,0.481-0.616,0.625-1.006
		c0.144-0.39,0.216-0.817,0.216-1.279c0-0.467-0.071-0.893-0.214-1.28C63.267,48.492,63.059,48.157,62.787,47.878z M61.647,51.628
		c-0.279,0.354-0.653,0.531-1.124,0.531c-0.311,0-0.581-0.081-0.81-0.241c-0.229-0.161-0.406-0.393-0.529-0.697
		C59.061,50.917,59,50.563,59,50.158c0-0.41,0.063-0.769,0.188-1.075s0.303-0.539,0.534-0.696s0.499-0.235,0.802-0.235
		c0.47,0,0.845,0.176,1.124,0.528c0.278,0.353,0.417,0.845,0.417,1.479C62.064,50.783,61.925,51.273,61.647,51.628z"/>
	<path d="M66.02,47.002c-0.226,0-0.412,0.077-0.554,0.233c-0.142,0.155-0.213,0.387-0.213,0.693v4.441
		c0,0.303,0.071,0.537,0.213,0.699c0.143,0.163,0.328,0.244,0.554,0.244c0.227,0,0.416-0.079,0.564-0.238
		c0.146-0.159,0.221-0.394,0.221-0.705v-4.487c0-0.276-0.074-0.492-0.221-0.647C66.436,47.079,66.246,47.002,66.02,47.002z"/>
	<path d="M66.037,44.762c-0.208,0-0.391,0.071-0.548,0.213c-0.157,0.143-0.236,0.323-0.236,0.543c0,0.242,0.077,0.432,0.23,0.563
		c0.153,0.133,0.338,0.199,0.554,0.199c0.209,0,0.389-0.067,0.539-0.202c0.152-0.135,0.229-0.321,0.229-0.561
		c0-0.245-0.078-0.435-0.232-0.563C66.416,44.826,66.238,44.762,66.037,44.762z"/>
	<path d="M74.061,48.025c-0.162-0.325-0.402-0.577-0.723-0.756c-0.324-0.179-0.688-0.268-1.098-0.268
		c-0.422,0-0.795,0.084-1.117,0.253c-0.324,0.169-0.623,0.435-0.896,0.793V47.86c0-0.186-0.033-0.343-0.1-0.472
		s-0.154-0.225-0.266-0.29c-0.107-0.064-0.232-0.097-0.369-0.097c-0.223,0-0.4,0.073-0.529,0.219
		c-0.127,0.146-0.193,0.366-0.193,0.662v4.487c0,0.303,0.072,0.537,0.219,0.699c0.143,0.163,0.326,0.244,0.551,0.244
		c0.232,0,0.42-0.079,0.566-0.235c0.145-0.158,0.219-0.394,0.219-0.708v-1.945c0-0.634,0.037-1.065,0.113-1.296
		c0.105-0.288,0.273-0.516,0.5-0.681c0.229-0.165,0.48-0.246,0.756-0.246c0.424,0,0.709,0.136,0.85,0.407
		c0.145,0.271,0.213,0.661,0.213,1.173v2.588c0,0.303,0.074,0.537,0.217,0.699c0.143,0.163,0.332,0.244,0.564,0.244
		c0.225,0,0.41-0.079,0.553-0.238c0.145-0.159,0.213-0.394,0.213-0.705v-2.889c0-0.341-0.016-0.622-0.045-0.842
		C74.227,48.42,74.162,48.215,74.061,48.025z"/>
	<path d="M79.324,52.018c-0.09,0-0.211,0.017-0.365,0.048c-0.156,0.032-0.279,0.049-0.369,0.049c-0.166,0-0.289-0.04-0.361-0.123
		c-0.074-0.081-0.119-0.188-0.137-0.318s-0.027-0.317-0.027-0.561v-2.854h0.291c0.309,0,0.543-0.041,0.707-0.125
		c0.166-0.084,0.248-0.23,0.248-0.438c0-0.162-0.057-0.296-0.174-0.401c-0.115-0.104-0.281-0.156-0.504-0.156h-0.568v-1.057
		c0-0.263-0.012-0.464-0.041-0.605c-0.027-0.143-0.096-0.262-0.201-0.362c-0.16-0.147-0.338-0.221-0.535-0.221
		c-0.141,0-0.268,0.033-0.381,0.1c-0.115,0.066-0.201,0.151-0.262,0.258c-0.061,0.103-0.098,0.226-0.111,0.367
		c-0.014,0.143-0.02,0.338-0.02,0.589v0.932h-0.172c-0.234,0-0.414,0.053-0.535,0.156c-0.123,0.105-0.188,0.239-0.188,0.401
		c0,0.163,0.061,0.298,0.178,0.403c0.117,0.106,0.287,0.16,0.514,0.16h0.203v2.979c0,0.481,0.039,0.866,0.117,1.154
		c0.076,0.289,0.24,0.515,0.49,0.677c0.252,0.163,0.619,0.244,1.105,0.244c0.512,0,0.902-0.065,1.176-0.198
		c0.273-0.134,0.41-0.325,0.41-0.575c0-0.147-0.051-0.271-0.15-0.373C79.561,52.067,79.447,52.018,79.324,52.018z"/>
	<path d="M65,6.063c-16.257,0-29.437,13.179-29.437,29.437c0,16.257,13.18,29.437,29.437,29.437
		c16.256,0,29.438-13.18,29.438-29.437C94.438,19.242,81.256,6.063,65,6.063z M65,63.406c-15.412,0-27.905-12.495-27.905-27.906
		C37.094,20.088,49.587,7.595,65,7.595c15.413,0,27.907,12.493,27.907,27.905C92.906,50.911,80.412,63.406,65,63.406z"/>
	<path d="M54.179,33.017c3.108,0,5.628-2.521,5.628-5.629s-2.52-5.628-5.628-5.628c-3.109,0-5.629,2.52-5.629,5.628
		S51.07,33.017,54.179,33.017z M54.179,22.989c2.429,0,4.399,1.97,4.399,4.399s-1.97,4.399-4.399,4.399c-2.43,0-4.4-1.969-4.4-4.399
		S51.749,22.989,54.179,22.989z"/>
	<path d="M75.006,15.786c-4.063,0-7.354,3.292-7.354,7.354c0,4.062,3.291,7.354,7.354,7.354s7.354-3.292,7.354-7.354
		C82.359,19.079,79.068,15.786,75.006,15.786z M75.006,28.888c-3.174,0-5.748-2.573-5.748-5.748c0-3.174,2.574-5.748,5.748-5.748
		s5.748,2.573,5.748,5.748C80.754,26.314,78.18,28.888,75.006,28.888z"/>
	<path d="M53.144,28.067h2.07c0.375,0,0.68-0.304,0.68-0.679c0-0.375-0.304-0.68-0.68-0.68h-2.07c-0.375,0-0.679,0.304-0.679,0.68
		C52.464,27.763,52.769,28.067,53.144,28.067z"/>
	<path d="M77.277,22.52h-1.426v-1.427c0-0.412-0.334-0.746-0.746-0.746c-0.41,0-0.744,0.333-0.744,0.746v1.427h-1.428
		c-0.41,0-0.744,0.333-0.744,0.745c0,0.412,0.334,0.745,0.744,0.745h1.428v1.427c0,0.411,0.334,0.745,0.744,0.745
		c0.412,0,0.746-0.334,0.746-0.745V24.01h1.426c0.412,0,0.746-0.333,0.746-0.745C78.023,22.854,77.689,22.52,77.277,22.52z"/>
	<path d="M69.746,35.087c0-1.772-1.438-3.211-3.211-3.211c-1.773,0-3.21,1.438-3.21,3.211c0,1.773,1.438,3.21,3.21,3.21
		C68.309,38.297,69.746,36.86,69.746,35.087z M64.821,35.087c0-0.947,0.768-1.715,1.714-1.715c0.949,0,1.715,0.768,1.715,1.715
		s-0.766,1.715-1.715,1.715C65.588,36.802,64.821,36.034,64.821,35.087z"/>
</g>
</svg>
