<?xml version="1.0" encoding="utf-8"?>
<!-- Generator: Adobe Illustrator 16.0.0, SVG Export Plug-In . SVG Version: 6.00 Build 0)  -->
<!DOCTYPE svg PUBLIC "-//W3C//DTD SVG 1.1//EN" "http://www.w3.org/Graphics/SVG/1.1/DTD/svg11.dtd">
<svg version="1.1" id="圖層_1" xmlns="http://www.w3.org/2000/svg" xmlns:xlink="http://www.w3.org/1999/xlink" x="0px" y="0px"
	 width="130px" height="71px" viewBox="0 0 130 71" enable-background="new 0 0 130 71" xml:space="preserve">
<g>
	<path d="M49.916,8.907c-0.144-0.601-0.646-0.996-1.124-0.882c-0.019,0.004-0.036,0.011-0.054,0.017
		c-0.018,0.003-0.035,0.005-0.053,0.009l-7.739,1.718c-0.018,0.004-0.036,0.01-0.053,0.015c-0.01,0.001-0.02,0.002-0.03,0.005
		c-0.478,0.114-0.748,0.693-0.604,1.294l9.372,39.271c0.039,0.162,0.104,0.308,0.188,0.434c0.088,0.157,0.219,0.281,0.374,0.362
		l5.079,5.819c0.189,0.217,0.458,0.32,0.727,0.308c0.406,0.014,0.785-0.239,0.908-0.642l2.314-7.581
		c0.007-0.023,0.013-0.048,0.018-0.071c0.096-0.228,0.122-0.507,0.054-0.792L49.916,8.907z M42.159,11.391l6.194-1.375l0.844,3.537
		l-6.194,1.375L42.159,11.391z M55.61,54.55l-3.205-3.672l4.64-1.03L55.61,54.55z M51.195,49.255l-7.763-32.53l6.194-1.376
		L57.39,47.88L51.195,49.255z"/>
	<path d="M54.611,42.977c0.063,0.265,0.301,0.436,0.532,0.381c0.23-0.056,0.366-0.314,0.302-0.579l-4.132-17.315
		c-0.063-0.265-0.301-0.435-0.531-0.38c-0.23,0.055-0.366,0.314-0.303,0.579L54.611,42.977z"/>
	<path d="M75.361,42.49c-7.963,0-14.418,4.59-14.418,10.252s6.456,10.253,14.418,10.253c7.964,0,14.419-4.591,14.419-10.253
		S83.325,42.49,75.361,42.49z M75.361,61.32c-6.662,0-12.063-3.84-12.063-8.578c0-4.736,5.401-8.577,12.063-8.577
		c6.663,0,12.063,3.841,12.063,8.577C87.425,57.48,82.024,61.32,75.361,61.32z"/>
	<path d="M73.743,52.378v-0.553c0.139,0.062,0.411,0.174,0.817,0.337l0.349-0.681c-1.615-0.582-2.692-1.32-3.232-2.215h-2.019v0.697
		h0.649c-0.619,0.55-1.509,1.039-2.667,1.469l0.336,0.673c0.305-0.117,0.581-0.232,0.829-0.344v0.616h2.099v1.146h-2.066v0.705
		h2.066v1.189h-3.036v0.697h6.793v-0.697h-3.004v-1.189h2.019v-0.705h-2.019v-1.146H73.743z M69.01,51.661
		c1.023-0.502,1.779-1.04,2.271-1.614c0.499,0.619,1.207,1.157,2.126,1.614H69.01z"/>
	<path d="M80.73,53.445c-0.597-0.855-0.896-1.729-0.896-2.621v-1.686h-0.776v1.309c0,2.163-1.078,3.916-3.232,5.259l0.492,0.597
		c1.698-1.02,2.745-2.274,3.141-3.765c0.505,1.33,1.555,2.6,3.151,3.809l0.473-0.601C82.111,55.068,81.327,54.302,80.73,53.445z"/>
</g>
</svg>
