<?xml version="1.0" encoding="utf-8"?>
<!-- Generator: Adobe Illustrator 16.0.0, SVG Export Plug-In . SVG Version: 6.00 Build 0)  -->
<!DOCTYPE svg PUBLIC "-//W3C//DTD SVG 1.1//EN" "http://www.w3.org/Graphics/SVG/1.1/DTD/svg11.dtd">
<svg version="1.1" id="圖層_1" xmlns="http://www.w3.org/2000/svg" xmlns:xlink="http://www.w3.org/1999/xlink" x="0px" y="0px"
	 width="130px" height="71px" viewBox="0 0 130 71" enable-background="new 0 0 130 71" xml:space="preserve">
<g>
	<path d="M107.885,47.604l0.199-3.772l8.498-5.554l-1.485-1.405c-3.462-3.273-7.026-4.934-10.594-4.934
		c-4.83,0-8.488,3.017-10.628,5.403v-2.795c0-0.824-0.649-1.502-1.473-1.537l-1.288-0.055l-0.019-4.157
		c-0.004-0.829-0.665-1.507-1.494-1.531l-9.297-0.27l-0.043-2.024c-0.02-0.836-0.702-1.505-1.538-1.505h-6.615v-1.014h1.538
		c0.763,0,1.41-0.559,1.521-1.314c0.11-0.754-0.349-1.477-1.078-1.698c-0.089-0.026-8.813-2.725-10.629-9.019
		c-0.182-0.628-0.74-1.073-1.393-1.11c-0.029-0.001-0.058-0.002-0.086-0.002c-0.619,0-1.182,0.373-1.421,0.951
		c-0.036,0.087-3.717,8.818-9.829,9.115c-0.834,0.041-1.483,0.739-1.463,1.574c0.01,0.41,0.18,0.779,0.449,1.049
		c-0.439,0.11-0.815,0.41-1.015,0.83c-0.221,0.461-0.195,0.998,0.056,1.432h-5.031c-0.51,0-0.987,0.253-1.273,0.675
		c-0.203,0.299-0.292,0.656-0.259,1.007c0,0-8.547-0.219-8.561-0.219c-0.4,0-0.786,0.156-1.073,0.437
		c-0.297,0.29-0.465,0.687-0.465,1.102v0.921h-1.893c-0.85,0-1.538,0.688-1.538,1.538v8.076c0,0.058,0.004,0.114,0.01,0.171
		l-9.322-0.206c-2.28,0-4.052,0.728-5.266,2.162c-1.932,2.283-1.631,5.454-1.525,6.215c0.108,5.228,3.418,7.095,6.497,7.095
		c0.3,0,0.538-0.02,0.683-0.035l26.865,0.136c0.134,0.114,0.219,0.115,0.219,0.115c1.177,0.672,3.464,0.219,4.66-0.091l1.284,0.006
		c1.308,0.836,1.473,3.247,0.146,4.224c-1.484,1.093,0,2.187,0,2.187s1.952,1.249,3.436,1.796c1.483,0.546,1.952-1.016,1.952-1.016
		l1.015-2.498c1.562-2.499,3.583,0.155,3.583,0.155s1.102,1.563,1.609,2.422c0.506,0.858,1.679,0.937,1.679,0.937
		s2.421-0.391,3.671-0.859c1.249-0.469,1.014-2.115,1.014-2.115s-0.546-2.647-0.701-3.038c-0.156-0.391-0.938-1.249,0.389-1.952
		c0.13-0.068,0.259-0.117,0.387-0.148l0.863,0.003c0.869,0.204,1.702,0.92,2.499,1.239c1.171,0.468,2.421-0.391,2.421-0.391
		c0.184-0.283,0.347-0.557,0.496-0.82l15.105,0.075c3.485,4.32,7.429,6.51,11.729,6.509c6.833,0,11.885-5.626,12.096-5.865
		l1.361-1.541L107.885,47.604z M30.204,29.723h3.431v-2.459l10.785,0.276l-0.692-1.74h8.23l-1.866-2.308h4.404v-2.578h-3.688
		c7.157-0.348,11.176-10.064,11.176-10.064c2.078,7.202,11.664,10.066,11.664,10.066H70.57v4.09h8.153l0.076,3.486l10.758,0.312
		l0.025,5.625l2.754,0.117v4.618l-14.611-0.322c-0.391-1.004-0.802-2.07-0.916-2.412c-0.233-0.703-2.342-0.234-2.342-0.234
		s-1.172,0.624-3.202,0.702c-2.029,0.078-2.029-1.795-2.029-1.795s0.781-1.562,1.484-3.514c0.701-1.952-1.25-2.03-1.25-2.03
		s-1.953-0.781-3.201-1.034c-1.25-0.254-1.758,0.722-1.758,0.722s-0.507,1.952-1.609,3.066c-1.103,1.115-2.724,0-2.724,0
		s-1.796-2.52-2.031-3.3c-0.234-0.781-1.561-0.391-1.561-0.391l-3.67,1.874c-0.871,0.445,1.25,4.051,1.25,4.051
		c-0.013,0.311-0.087,1.052-0.615,1.758c-0.307,0.409-0.655,0.659-0.895,0.802c-0.347,0.053-0.694,0.104-1.041,0.156
		c-0.465-0.05-1.12-0.178-1.832-0.521c-0.41-0.197-0.744-0.421-1.005-0.624c-1.717-0.781-2.42,0.858-2.42,0.858
		c-0.086,0.397-0.218,0.689-0.326,0.888c-0.05,0.092-0.096,0.164-0.171,0.279l-15.658-0.344V29.723z M49.784,46.498
		c-0.51,0.706-1.251,0.958-1.566,1.044c-0.987,0.235-1.759,0.59-2.328,0.912c-0.502,0.284-0.774,0.425-0.885,0.698
		c-0.274,0.678,0.419,1.581,0.797,2.565l-26.152-0.132c0,0-5.401,0.827-5.476-5.58c0,0-1.11-6.629,5.18-6.629l25.861,0.571
		c0.06,0.247,0.156,0.445,0.195,0.53c0.344,0.742,1.027,1.025,1.027,1.025c1.101,0.496,2.204,0.99,3.305,1.484
		C50.459,44.156,50.474,45.546,49.784,46.498z M61.776,49.764c-2.584,0-4.679-2.095-4.679-4.679c0-2.585,2.095-4.679,4.679-4.679
		c2.584,0,4.678,2.094,4.678,4.679C66.454,47.669,64.36,49.764,61.776,49.764z M93.123,51.956L78.002,51.88
		c0.293-0.745,0.443-1.353,0.525-1.786c0.111-0.58,0.149-1.104-0.155-1.531c-0.476-0.669-1.468-0.66-1.674-0.654
		c-0.192,0.009-1.41,0.042-2.309-0.906c-0.776-0.818-1.256-2.263-0.625-2.999c0.938-1.093,2.889-1.64,3.827-1.952
		c0.936-0.313,0.936-1.162,0.936-1.162s-0.03-0.076-0.081-0.207l14.677,0.324c0,0,8.583-14.577,20.865-2.96l-7.473,4.884
		l-0.296,5.623l8.73,4.587C114.95,53.14,103.704,65.866,93.123,51.956z"/>
	<path d="M22.462,41.992c-1.708,0-3.093,1.385-3.093,3.093s1.385,3.092,3.093,3.092s3.093-1.384,3.093-3.092
		S24.17,41.992,22.462,41.992z M22.462,47.279c-1.212,0-2.194-0.982-2.194-2.194s0.982-2.194,2.194-2.194s2.194,0.982,2.194,2.194
		S23.674,47.279,22.462,47.279z"/>
</g>
</svg>
