<?xml version="1.0" encoding="utf-8"?>
<!-- Generator: Adobe Illustrator 19.1.1, SVG Export Plug-In . SVG Version: 6.00 Build 0)  -->
<svg version="1.1" id="圖層_1" xmlns="http://www.w3.org/2000/svg" xmlns:xlink="http://www.w3.org/1999/xlink" x="0px" y="0px"
	 viewBox="0 0 32 32" style="enable-background:new 0 0 32 32;" xml:space="preserve">
<style type="text/css">
	.st0{fill:#333333;}
</style>
<g>
	<path class="st0" d="M30.2,25.7l-5.5-15l1.6-3.8c0.2-0.5,0.4-1.1,0.4-1.7c0-2.4-2-4.4-4.4-4.4c-2.4,0-4.4,2-4.4,4.4
		c0,0.6,0.1,1.2,0.4,1.7L19,8.9L16,9.1c-0.1,0-0.2,0-0.3,0.1c0,0-0.1,0-0.1,0.1l-5.4,4.1H2.4c-0.1,0-0.2,0-0.3,0.1
		c-0.2,0.1-0.3,0.4-0.2,0.7L8,30.8c0.1,0.2,0.3,0.4,0.6,0.3h0h7.7h0h0h0h0c0,0,0,0,0,0c0,0,0,0,0,0c0,0,0,0,0.1,0c0,0,0,0,0.1,0
		l5.5-4.2l7.4-0.3c0,0,0.1,0,0.2,0C30.1,26.3,30.3,25.9,30.2,25.7z M22.2,2.7c1.3,0,2.4,1.1,2.4,2.4s-1.1,2.4-2.4,2.4
		c-1.3,0-2.4-1.1-2.4-2.4C19.8,3.8,20.9,2.7,22.2,2.7z M8.9,30.1L3.1,14.5h6.7l1.2,3.2c0,0.1,0,0.3,0.1,0.4l4.5,12H8.9z M16.6,29.7
		l-4.2-11.4c0.1,0,0.2-0.1,0.2-0.2l0-0.2c0-0.2,0-0.4-0.2-0.5L12,17.3l-1.1-3.1l4.8-3.7L21.4,26L16.6,29.7z M22.4,25.7l-2.2-6
		l0.6-0.5c0.1-0.1,0.2-0.4,0-0.5l-0.1-0.1c-0.1-0.1-0.4-0.2-0.5,0l-0.3,0.3l-3.2-8.6l2.8-0.1l0.9,2.3v0c0.3,0.7,1,1.1,1.7,1.1
		c0.8,0,1.5-0.5,1.7-1.1v0l0-0.1l4.9,13.2L22.4,25.7z"/>
	<path class="st0" d="M22.1,16.4l-0.2-0.1c-0.2-0.1-0.4,0-0.5,0.1l-0.5,0.8c-0.1,0.2,0,0.4,0.1,0.5l0.2,0.1c0.2,0.1,0.4,0,0.5-0.1
		l0.5-0.8C22.3,16.8,22.3,16.5,22.1,16.4z"/>
	<path class="st0" d="M16.5,19.9l0.9,0.1c0.2,0,0.4-0.1,0.4-0.3l0-0.2c0-0.2-0.1-0.4-0.3-0.4l-0.9-0.1c-0.2,0-0.4,0.1-0.4,0.3l0,0.2
		C16.2,19.6,16.3,19.9,16.5,19.9z"/>
	<path class="st0" d="M15.1,18.9l0-0.2c0-0.2,0-0.4-0.2-0.5L14,17.9c-0.2,0-0.4,0-0.5,0.2l0,0.2c0,0.2,0,0.4,0.2,0.5l0.9,0.3
		C14.9,19.2,15,19.1,15.1,18.9z"/>
	<path class="st0" d="M10.1,17.7l-0.2-0.1c-0.2-0.1-0.4,0-0.5,0.1l-0.5,0.8c-0.1,0.2,0,0.4,0.1,0.5l0.2,0.1c0.2,0.1,0.4,0,0.5-0.1
		l0.5-0.8C10.3,18,10.2,17.8,10.1,17.7z"/>
	<path class="st0" d="M9.8,20.1c0-0.2-0.3-0.3-0.5-0.2l-0.2,0c-0.2,0-0.3,0.3-0.2,0.5l0.3,0.9c0,0.2,0.3,0.3,0.5,0.2l0.2,0
		c0.2,0,0.3-0.3,0.2-0.5L9.8,20.1z"/>
	<path class="st0" d="M10.6,22.8l-0.1,0.1c-0.1,0.2-0.1,0.4,0.1,0.5l0.8,0.5c0.2,0.1,0.4,0,0.5-0.1l0.1-0.1c0.1-0.2,0-0.4-0.1-0.5
		l-0.8-0.5C10.9,22.6,10.7,22.6,10.6,22.8z"/>
	<path class="st0" d="M14.6,23.7l0,0.2c0,0.2,0.1,0.4,0.3,0.5l0.9,0.2c0.2,0,0.4-0.1,0.5-0.3l0-0.2c0-0.2-0.1-0.4-0.3-0.5l-0.9-0.2
		C14.9,23.4,14.7,23.5,14.6,23.7z"/>
	<path class="st0" d="M22.1,13.9h-0.2c-0.2,0-0.4,0.2-0.4,0.4v1c0,0.2,0.2,0.4,0.4,0.4h0.2c0.2,0,0.4-0.2,0.4-0.4v-1
		C22.5,14.1,22.3,13.9,22.1,13.9z"/>
</g>
</svg>
